<svg width="100" height="100" viewBox="0 0 100 100" fill="none" xmlns="http://www.w3.org/2000/svg">
<g clip-path="url(#clip0_34_4)">
<path d="M0 0V100H36C53.949 100 68.5 85.449 68.5 67.5C68.5 49.551 53.949 35 36 35H17V48H17.0215V83H30.0215V48H36V47.9648C46.77 47.9648 55.5 56.6954 55.5 67.4648C55.5 78.2348 46.7695 86.9648 36 86.9648V87H13V13H87V30H100V0H87H0ZM48.9668 35C55.5433 37.6332 61.1457 42.1978 65.0527 48H80C83.5898 48 86.5 50.9102 86.5 54.5C86.5 58.0898 83.5898 61 80 61H70.3848C70.7824 63.1077 71 65.2785 71 67.5C71 69.7215 70.7824 71.8923 70.3848 74H80C83.5898 74 86.5 76.9102 86.5 80.5C86.5 84.0898 83.5898 87 80 87H65.0527C61.1459 92.8022 55.5434 97.367 48.9668 100H80C90.77 100 99.5 91.2695 99.5 80.5C99.499 75.6903 97.7202 71.0503 94.5059 67.4727C97.7077 63.9088 99.4855 59.2912 99.5 54.5C99.5 43.73 90.7695 35 80 35H48.9668Z" fill="url(#paint0_linear_34_4)"/>
</g>
<defs>
<linearGradient id="paint0_linear_34_4" x1="100" y1="100" x2="0" y2="0" gradientUnits="userSpaceOnUse">
<stop stop-color="#017FC0"/>
<stop offset="1" stop-color="#51B4FF"/>
</linearGradient>
<clipPath id="clip0_34_4">
<rect width="100" height="100" fill="white"/>
</clipPath>
</defs>
</svg>
