<svg class="feather feather-sun" width="30" height="240" version="1.1" viewBox="0 0 30 240" xmlns="http://www.w3.org/2000/svg">
 <g transform="matrix(1.2727 0 0 1.2727 -.27273 -.27273)" fill="none" stroke="currentColor" stroke-linecap="round" stroke-linejoin="round" stroke-width="1.5714">
  <circle cx="12" cy="12" r="5"/>
  <line x1="12" x2="12" y1="1" y2="3"/>
  <line x1="12" x2="12" y1="21" y2="23"/>
  <line x1="4.22" x2="5.64" y1="4.22" y2="5.64"/>
  <line x1="18.36" x2="19.78" y1="18.36" y2="19.78"/>
  <line x1="1" x2="3" y1="12" y2="12"/>
  <line x1="21" x2="23" y1="12" y2="12"/>
  <line x1="4.22" x2="5.64" y1="19.78" y2="18.36"/>
  <line x1="18.36" x2="19.78" y1="5.64" y2="4.22"/>
 </g>
 <g transform="matrix(1.2727 0 0 1.2727 -.30743 29.762)" fill="none" stroke="currentColor" stroke-linecap="round" stroke-linejoin="round" stroke-width="1.5714">
  <path d="m21 12.79a9 9 0 1 1-9.79-9.79 7 7 0 0 0 9.79 9.79z" stroke-width="1.5714"/>
 </g>
 <g transform="matrix(1.2727 0 0 1.2727 .045454 60.381)" fill="none" stroke="currentColor" stroke-linecap="round" stroke-linejoin="round" stroke-width="1.5714">
  <path d="m9 19c-5 1.5-5-2.5-7-3m14 6v-3.87a3.37 3.37 0 0 0-0.94-2.61c3.14-0.35 6.44-1.54 6.44-7a5.44 5.44 0 0 0-1.5-3.75 5.07 5.07 0 0 0-0.09-3.77s-1.18-0.35-3.91 1.48a13.38 13.38 0 0 0-7 0c-2.73-1.83-3.91-1.48-3.91-1.48a5.07 5.07 0 0 0-0.09 3.77 5.44 5.44 0 0 0-1.5 3.78c0 5.42 3.3 6.61 6.44 7a3.37 3.37 0 0 0-0.94 2.58v3.87" stroke-width="1.5714"/>
 </g>
 <g transform="matrix(1.25 0 0 1.25 1.2e-6 90)" fill="none" stroke="currentColor" stroke-linecap="round" stroke-linejoin="round" stroke-width="1.6">
  <circle cx="12" cy="12" r="3"/>
  <path d="m19.4 15a1.65 1.65 0 0 0 0.33 1.82l0.06 0.06a2 2 0 0 1 0 2.83 2 2 0 0 1-2.83 0l-0.06-0.06a1.65 1.65 0 0 0-1.82-0.33 1.65 1.65 0 0 0-1 1.51v0.17a2 2 0 0 1-2 2 2 2 0 0 1-2-2v-0.09a1.65 1.65 0 0 0-1.08-1.51 1.65 1.65 0 0 0-1.82 0.33l-0.06 0.06a2 2 0 0 1-2.83 0 2 2 0 0 1 0-2.83l0.06-0.06a1.65 1.65 0 0 0 0.33-1.82 1.65 1.65 0 0 0-1.51-1h-0.17a2 2 0 0 1-2-2 2 2 0 0 1 2-2h0.09a1.65 1.65 0 0 0 1.51-1.08 1.65 1.65 0 0 0-0.33-1.82l-0.06-0.06a2 2 0 0 1 0-2.83 2 2 0 0 1 2.83 0l0.06 0.06a1.65 1.65 0 0 0 1.82 0.33h0.08a1.65 1.65 0 0 0 1-1.51v-0.17a2 2 0 0 1 2-2 2 2 0 0 1 2 2v0.09a1.65 1.65 0 0 0 1 1.51 1.65 1.65 0 0 0 1.82-0.33l0.06-0.06a2 2 0 0 1 2.83 0 2 2 0 0 1 0 2.83l-0.06 0.06a1.65 1.65 0 0 0-0.33 1.82v0.08a1.65 1.65 0 0 0 1.51 1h0.17a2 2 0 0 1 2 2 2 2 0 0 1-2 2h-0.09a1.65 1.65 0 0 0-1.51 1z"/>
 </g>
 <g transform="matrix(1.25 0 0 1.25 -.61084 120.61)" fill="none" stroke="currentColor" stroke-linecap="round" stroke-linejoin="round" stroke-width="1.6">
  <path d="m14.7 6.3a1 1 0 0 0 0 1.4l1.6 1.6a1 1 0 0 0 1.4 0l3.77-3.77a6 6 0 0 1-7.94 7.94l-6.91 6.91a2.1213 2.1213 0 0 1-3-3l6.91-6.91a6 6 0 0 1 7.94-7.94l-3.76 3.76z" stroke-width="1.6"/>
 </g>
 <g transform="matrix(1.25 0 0 1.25 -3.9204e-7 150)" fill="none" stroke="currentColor" stroke-linecap="round" stroke-linejoin="round" stroke-width="1.6">
  <rect x="2" y="2" width="20" height="8" rx="1.6" ry="1.6"/>
  <rect x="2" y="14" width="20" height="8" rx="1.6" ry="1.6"/>
  <line x1="6" x2="6.01" y1="6" y2="6"/>
  <line x1="6" x2="6.01" y1="18" y2="18"/>
 </g>
 <g transform="matrix(1.25 0 0 1.25 -.625 180)" fill="none" stroke="currentColor" stroke-linecap="round" stroke-linejoin="round" stroke-width="1.6">
  <polyline points="9 11 12 14 22 4"/>
  <path d="m21 12v7a2 2 0 0 1-2 2h-14a2 2 0 0 1-2-2v-14a2 2 0 0 1 2-2h11"/>
 </g>
 <g transform="matrix(1.25 0 0 1.25 -3.2275e-7 210.05)" fill="none" stroke="currentColor" stroke-linecap="round" stroke-linejoin="round" stroke-width="1.6">
  <path d="m10.29 3.86-8.47 14.14a2 2 0 0 0 1.71 3h16.94a2 2 0 0 0 1.71-3l-8.47-14.14a2 2 0 0 0-3.42 0z"/>
  <line x1="12" x2="12" y1="9" y2="13"/>
  <line x1="12" x2="12.01" y1="17" y2="17"/>
 </g>
</svg>
