<?xml version="1.0" encoding="UTF-8" standalone="no"?>
<svg
   width="30"
   height="90"
   viewBox="0 0 30 90"
   fill="none"
   stroke="currentColor"
   stroke-width="2"
   stroke-linecap="round"
   stroke-linejoin="round"
   class="feather feather-sun"
   version="1.1"
   id="svg8"
   sodipodi:docname="icons.svg"
   xml:space="preserve"
   inkscape:version="1.3.2 (091e20e, 2023-11-25, custom)"
   xmlns:inkscape="http://www.inkscape.org/namespaces/inkscape"
   xmlns:sodipodi="http://sodipodi.sourceforge.net/DTD/sodipodi-0.dtd"
   xmlns="http://www.w3.org/2000/svg"
   xmlns:svg="http://www.w3.org/2000/svg"><defs
     id="defs8" /><sodipodi:namedview
     id="namedview8"
     pagecolor="#ffffff"
     bordercolor="#000000"
     borderopacity="0.25"
     inkscape:showpageshadow="2"
     inkscape:pageopacity="0.0"
     inkscape:pagecheckerboard="0"
     inkscape:deskcolor="#d1d1d1"
     inkscape:zoom="4.3199805"
     inkscape:cx="-17.592672"
     inkscape:cy="41.551113"
     inkscape:window-width="3440"
     inkscape:window-height="1369"
     inkscape:window-x="-8"
     inkscape:window-y="-8"
     inkscape:window-maximized="1"
     inkscape:current-layer="svg8" /><g
     style="fill:none;stroke:currentColor;stroke-width:1.57143;stroke-linecap:round;stroke-linejoin:round"
     id="g9"
     transform="matrix(1.2727273,0,0,1.2727273,-0.30742508,29.76197)"><path
       d="M 21,12.79 A 9,9 0 1 1 11.21,3 7,7 0 0 0 21,12.79 Z"
       id="path1"
       style="stroke-width:1.57143" /></g><g
     style="fill:none;stroke:currentColor;stroke-width:1.57143;stroke-linecap:round;stroke-linejoin:round;stroke-dasharray:none"
     id="g10"
     transform="matrix(1.2727273,0,0,1.2727273,0.04545423,60.380682)"><path
       d="M 9,19 C 4,20.5 4,16.5 2,16 m 14,6 v -3.87 a 3.37,3.37 0 0 0 -0.94,-2.61 c 3.14,-0.35 6.44,-1.54 6.44,-7 A 5.44,5.44 0 0 0 20,4.77 5.07,5.07 0 0 0 19.91,1 c 0,0 -1.18,-0.35 -3.91,1.48 a 13.38,13.38 0 0 0 -7,0 C 6.27,0.65 5.09,1 5.09,1 A 5.07,5.07 0 0 0 5,4.77 5.44,5.44 0 0 0 3.5,8.55 c 0,5.42 3.3,6.61 6.44,7 A 3.37,3.37 0 0 0 9,18.13 V 22"
       id="path1-3"
       style="stroke-width:1.57143;stroke-dasharray:none" /></g><g
     style="fill:none;stroke:currentColor;stroke-width:1.57143;stroke-linecap:round;stroke-linejoin:round"
     id="g8"
     transform="matrix(1.2727273,0,0,1.2727273,-0.27272639,-0.27272639)"><circle
       cx="12"
       cy="12"
       r="5"
       id="circle1"
       style="stroke-width:1.57143" /><line
       x1="12"
       y1="1"
       x2="12"
       y2="3"
       id="line1"
       style="stroke-width:1.57143" /><line
       x1="12"
       y1="21"
       x2="12"
       y2="23"
       id="line2"
       style="stroke-width:1.57143" /><line
       x1="4.2199998"
       y1="4.2199998"
       x2="5.6399999"
       y2="5.6399999"
       id="line3"
       style="stroke-width:1.57143" /><line
       x1="18.360001"
       y1="18.360001"
       x2="19.780001"
       y2="19.780001"
       id="line4"
       style="stroke-width:1.57143" /><line
       x1="1"
       y1="12"
       x2="3"
       y2="12"
       id="line5"
       style="stroke-width:1.57143" /><line
       x1="21"
       y1="12"
       x2="23"
       y2="12"
       id="line6"
       style="stroke-width:1.57143" /><line
       x1="4.2199998"
       y1="19.780001"
       x2="5.6399999"
       y2="18.360001"
       id="line7"
       style="stroke-width:1.57143" /><line
       x1="18.360001"
       y1="5.6399999"
       x2="19.780001"
       y2="4.2199998"
       id="line8"
       style="stroke-width:1.57143" /></g></svg>
