<svg width="100" height="100" fill="none" xmlns="http://www.w3.org/2000/svg"><g clip-path="url(#a)"><path d="M0 0v100h36c17.949 0 32.5-14.551 32.5-32.5C68.5 49.551 53.949 35 36 35H17v13h.021v35h13V48H36v-.035c10.77 0 19.5 8.73 19.5 19.5s-8.73 19.5-19.5 19.5V87H13V13h74v17h13V0H0Zm48.967 35a35.195 35.195 0 0 1 16.086 13H80a6.5 6.5 0 0 1 0 13h-9.615c.397 2.108.615 4.278.615 6.5 0 2.222-.218 4.392-.615 6.5H80a6.5 6.5 0 0 1 0 13H65.053a35.192 35.192 0 0 1-16.086 13H80c10.77 0 19.5-8.73 19.5-19.5a19.5 19.5 0 0 0-4.994-13.027A19.5 19.5 0 0 0 99.5 54.5C99.5 43.73 90.77 35 80 35H48.967Z" fill="url(#b)"/></g><defs><linearGradient id="b" x1="100" y1="100" x2="0" y2="0" gradientUnits="userSpaceOnUse"><stop stop-color="#017FC0"/><stop offset="1" stop-color="#51B4FF"/></linearGradient><clipPath id="a"><path fill="#fff" d="M0 0h100v100H0z"/></clipPath></defs></svg>