<svg width="30" height="90" fill="none" stroke="currentColor" stroke-width="2" stroke-linecap="round" stroke-linejoin="round" class="feather feather-sun" xml:space="preserve" xmlns="http://www.w3.org/2000/svg"><g style="fill:none;stroke:currentColor;stroke-width:1.57143;stroke-linecap:round;stroke-linejoin:round"><path d="M21 12.79A9 9 0 1 1 11.21 3 7 7 0 0 0 21 12.79Z" style="stroke-width:1.57143" transform="matrix(1.27273 0 0 1.27273 -.307 29.762)"/></g><g style="fill:none;stroke:currentColor;stroke-width:1.57143;stroke-linecap:round;stroke-linejoin:round;stroke-dasharray:none"><path d="M9 19c-5 1.5-5-2.5-7-3m14 6v-3.87a3.37 3.37 0 0 0-.94-2.61c3.14-.35 6.44-1.54 6.44-7A5.44 5.44 0 0 0 20 4.77 5.07 5.07 0 0 0 19.91 1S18.73.65 16 2.48a13.38 13.38 0 0 0-7 0C6.27.65 5.09 1 5.09 1A5.07 5.07 0 0 0 5 4.77a5.44 5.44 0 0 0-1.5 3.78c0 5.42 3.3 6.61 6.44 7A3.37 3.37 0 0 0 9 18.13V22" style="stroke-width:1.57143;stroke-dasharray:none" transform="matrix(1.27273 0 0 1.27273 .045 60.38)"/></g><g style="fill:none;stroke:currentColor;stroke-width:1.57143;stroke-linecap:round;stroke-linejoin:round" transform="matrix(1.27273 0 0 1.27273 -.273 -.273)"><circle cx="12" cy="12" r="5" style="stroke-width:1.57143"/><path style="stroke-width:1.57143" d="M12 1v2M12 21v2M4.22 4.22l1.42 1.42M18.36 18.36l1.42 1.42M1 12h2M21 12h2M4.22 19.78l1.42-1.42M18.36 5.64l1.42-1.42"/></g></svg>