<svg class="feather feather-sun" width="30" height="240" xmlns="http://www.w3.org/2000/svg"><g transform="translate(-.273 -.273) scale(1.2727)" fill="none" stroke="currentColor" stroke-linecap="round" stroke-linejoin="round" stroke-width="1.571"><circle cx="12" cy="12" r="5"/><path d="M12 1v2M12 21v2M4.22 4.22l1.42 1.42M18.36 18.36l1.42 1.42M1 12h2M21 12h2M4.22 19.78l1.42-1.42M18.36 5.64l1.42-1.42"/></g><path d="M26.42 46.04a11.454 11.454 0 1 1-12.46-12.46 8.909 8.909 0 0 0 12.46 12.46zM11.5 84.562c-6.364 1.91-6.364-3.181-8.91-3.818M20.41 88.38v-4.925a4.289 4.289 0 0 0-1.197-3.322c3.997-.445 8.197-1.96 8.197-8.909a6.923 6.923 0 0 0-1.91-4.772 6.453 6.453 0 0 0-.114-4.798s-1.502-.446-4.976 1.883a17.029 17.029 0 0 0-8.91 0c-3.474-2.329-4.976-1.883-4.976-1.883a6.453 6.453 0 0 0-.114 4.798 6.923 6.923 0 0 0-1.91 4.81c0 6.899 4.2 8.413 8.197 8.91a4.289 4.289 0 0 0-1.196 3.283v4.925" fill="none" stroke="currentColor" stroke-linecap="round" stroke-linejoin="round" stroke-width="1.9994116999999998"/><g transform="matrix(1.25 0 0 1.25 0 90)" fill="none" stroke="currentColor" stroke-linecap="round" stroke-linejoin="round" stroke-width="1.6"><circle cx="12" cy="12" r="3"/><path d="M19.4 15a1.65 1.65 0 0 0 .33 1.82l.06.06a2 2 0 0 1 0 2.83 2 2 0 0 1-2.83 0l-.06-.06a1.65 1.65 0 0 0-1.82-.33 1.65 1.65 0 0 0-1 1.51V21a2 2 0 0 1-2 2 2 2 0 0 1-2-2v-.09A1.65 1.65 0 0 0 9 19.4a1.65 1.65 0 0 0-1.82.33l-.06.06a2 2 0 0 1-2.83 0 2 2 0 0 1 0-2.83l.06-.06a1.65 1.65 0 0 0 .33-1.82 1.65 1.65 0 0 0-1.51-1H3a2 2 0 0 1-2-2 2 2 0 0 1 2-2h.09A1.65 1.65 0 0 0 4.6 9a1.65 1.65 0 0 0-.33-1.82l-.06-.06a2 2 0 0 1 0-2.83 2 2 0 0 1 2.83 0l.06.06a1.65 1.65 0 0 0 1.82.33H9a1.65 1.65 0 0 0 1-1.51V3a2 2 0 0 1 2-2 2 2 0 0 1 2 2v.09a1.65 1.65 0 0 0 1 1.51 1.65 1.65 0 0 0 1.82-.33l.06-.06a2 2 0 0 1 2.83 0 2 2 0 0 1 0 2.83l-.06.06a1.65 1.65 0 0 0-.33 1.82V9a1.65 1.65 0 0 0 1.51 1H21a2 2 0 0 1 2 2 2 2 0 0 1-2 2h-.09a1.65 1.65 0 0 0-1.51 1z"/></g><path d="M17.764 128.485a1.25 1.25 0 0 0 0 1.75l2 2a1.25 1.25 0 0 0 1.75 0l4.713-4.713a7.5 7.5 0 0 1-9.925 9.926l-8.638 8.637a2.652 2.652 0 0 1-3.75-3.75l8.638-8.637a7.5 7.5 0 0 1 9.925-9.925l-4.7 4.7z" fill="none" stroke="currentColor" stroke-linecap="round" stroke-linejoin="round" stroke-width="2"/><g transform="matrix(1.25 0 0 1.25 0 150)" fill="none" stroke="currentColor" stroke-linecap="round" stroke-linejoin="round" stroke-width="1.6"><rect x="2" y="2" width="20" height="8" rx="1.6" ry="1.6"/><rect x="2" y="14" width="20" height="8" rx="1.6" ry="1.6"/><path d="M6 6h.01M6 18h.01"/></g><g fill="none" stroke="currentColor" stroke-linecap="round" stroke-linejoin="round" stroke-width="1.6"><path d="m10.625 193.75 3.75 3.75 12.5-12.5" stroke-width="2"/><path d="M25.625 195v8.75a2.5 2.5 0 0 1-2.5 2.5h-17.5a2.5 2.5 0 0 1-2.5-2.5v-17.5a2.5 2.5 0 0 1 2.5-2.5h13.75" stroke-width="2"/></g><g fill="none" stroke="currentColor" stroke-linecap="round" stroke-linejoin="round" stroke-width="1.6"><path d="M12.862 214.875 2.275 232.55a2.5 2.5 0 0 0 2.137 3.75h21.175a2.5 2.5 0 0 0 2.138-3.75l-10.588-17.675a2.5 2.5 0 0 0-4.275 0zM15 221.3v5M15 231.3h.012" stroke-width="2"/></g></svg>