<?xml version="1.0" encoding="UTF-8" standalone="no"?>
<svg
   width="100"
   height="100"
   viewBox="0 0 100 100"
   fill="none"
   version="1.1"
   id="svg6"
   sodipodi:docname="dockbox.svg"
   xml:space="preserve"
   inkscape:version="1.3.2 (091e20e, 2023-11-25, custom)"
   xmlns:inkscape="http://www.inkscape.org/namespaces/inkscape"
   xmlns:sodipodi="http://sodipodi.sourceforge.net/DTD/sodipodi-0.dtd"
   xmlns="http://www.w3.org/2000/svg"
   xmlns:svg="http://www.w3.org/2000/svg"><sodipodi:namedview
     id="namedview6"
     pagecolor="#ffffff"
     bordercolor="#000000"
     borderopacity="0.25"
     inkscape:showpageshadow="2"
     inkscape:pageopacity="0.0"
     inkscape:pagecheckerboard="0"
     inkscape:deskcolor="#d1d1d1"
     inkscape:zoom="0.81458333"
     inkscape:cx="42.966752"
     inkscape:cy="268.23529"
     inkscape:window-width="3440"
     inkscape:window-height="1369"
     inkscape:window-x="-8"
     inkscape:window-y="-8"
     inkscape:window-maximized="1"
     inkscape:current-layer="svg6" /><defs
     id="defs6"><linearGradient
       id="paint0_linear_304_356"
       x1="150.138"
       y1="554.81702"
       x2="568.862"
       y2="554.81702"
       gradientUnits="userSpaceOnUse"><stop
         stop-color="#8930FD"
         id="stop3" /><stop
         offset="1"
         stop-color="#49CCF9"
         id="stop4" /></linearGradient><linearGradient
       id="paint1_linear_304_356"
       x1="159.257"
       y1="276.694"
       x2="560.45697"
       y2="276.694"
       gradientUnits="userSpaceOnUse"><stop
         stop-color="#FF02F0"
         id="stop5" /><stop
         offset="1"
         stop-color="#FFC800"
         id="stop6" /></linearGradient><linearGradient
       id="paint0_linear_47_14"
       x1="146.883"
       y1="146.407"
       x2="103.628"
       y2="71.486702"
       gradientUnits="userSpaceOnUse"
       gradientTransform="translate(-75.256,-59)"><stop
         stop-color="#A67FFE"
         id="stop9"
         style="stop-color:#8734fd;stop-opacity:0.97254902" /><stop
         offset="0.501423"
         stop-color="#F45490"
         id="stop10"
         style="stop-color:#ff459e;stop-opacity:0.97254902" /><stop
         offset="1"
         stop-color="#FFB765"
         id="stop11"
         style="stop-color:#ffc405;stop-opacity:0.97254902" /></linearGradient><linearGradient
       id="paint1_linear_47_14"
       x1="125.256"
       y1="159"
       x2="168.51199"
       y2="159"
       gradientUnits="userSpaceOnUse"
       gradientTransform="translate(-75.256,-59)"><stop
         stop-color="white"
         stop-opacity="0.251"
         id="stop12" /><stop
         offset="1"
         stop-color="white"
         stop-opacity="0"
         id="stop13" /></linearGradient></defs><g
     id="g6"
     transform="matrix(0.98,0,0,0.98,0.99902,1)"><path
       d="M 49.999,0 6.744,24.9734 50.001,50.052 84.604,30.0748 V 70.031 L 49.999,90.01 15.3961,70.032 V 55.159 L 49.977,74.933 71.627,62.54 V 52.549 L 49.999,65.037 6.7443,40.0635 V 75.026 L 49.999,100 93.256,75.026 V 25.0791 L 84.605,20.0847 50.001,40.0635 24.1382,25.132 50.091,10.1475 l 12.886,7.44 8.65,-4.9957 z"
       fill="url(#paint0_linear_47_14)"
       id="path1-3"
       style="fill:url(#paint0_linear_47_14)" /><path
       d="m 49.999,0 v 10.2004 l 0.092,-0.0529 12.886,7.44 8.651,-4.9957 z M 84.605,20.0846 50.001,40.0635 V 50.051 L 84.606,30.0747 V 70.031 L 50.001,90.01 V 100 L 93.258,75.025 V 25.079 Z M 71.628,52.549 49.999,65.037 V 74.92 L 71.628,62.54 Z"
       fill="url(#paint1_linear_47_14)"
       id="path2-5"
       style="fill:url(#paint1_linear_47_14)" /></g></svg>
