<svg width="22" height="66" viewBox="0 0 22 66" fill="none" xmlns="http://www.w3.org/2000/svg">
<g clip-path="url(#clip0_37_9)">
<path d="M14.0017 54.9944C14.0017 55.1259 14.0275 55.256 14.0777 55.3775C14.128 55.4989 14.2017 55.6093 14.2946 55.7022C14.3875 55.7952 14.4979 55.8689 14.6193 55.9192C14.7407 55.9695 14.8709 55.9954 15.0023 55.9954C15.1337 55.9954 15.2639 55.9695 15.3853 55.9192C15.5067 55.8689 15.617 55.7952 15.71 55.7022C15.8029 55.6093 15.8766 55.4989 15.9268 55.3775C15.9771 55.256 16.0029 55.1259 16.0029 54.9944C16.0029 54.863 15.9771 54.7328 15.9268 54.6114C15.8766 54.4899 15.8029 54.3796 15.71 54.2866C15.617 54.1937 15.5067 54.1199 15.3853 54.0696C15.2639 54.0193 15.1337 53.9934 15.0023 53.9934C14.8709 53.9934 14.7407 54.0193 14.6193 54.0696C14.4979 54.1199 14.3875 54.1937 14.2946 54.2866C14.2017 54.3796 14.128 54.4899 14.0777 54.6114C14.0275 54.7328 14.0017 54.863 14.0017 54.9944Z" stroke="black" stroke-width="2" stroke-linecap="round" stroke-linejoin="round"/>
<path d="M9.99945 50.9922C9.99945 51.2575 10.1049 51.512 10.2925 51.6997C10.4802 51.8873 10.7347 51.9927 11 51.9927C11.2654 51.9927 11.5199 51.8873 11.7075 51.6997C11.8952 51.512 12.0006 51.2575 12.0006 50.9922C12.0006 50.7268 11.8952 50.4723 11.7075 50.2847C11.5199 50.097 11.2654 49.9916 11 49.9916C10.7347 49.9916 10.4802 50.097 10.2925 50.2847C10.1049 50.4723 9.99945 50.7268 9.99945 50.9922Z" stroke="black" stroke-width="2" stroke-linecap="round" stroke-linejoin="round"/>
<path d="M9.99945 58.9967C9.99945 59.262 10.1049 59.5165 10.2925 59.7042C10.4802 59.8918 10.7347 59.9972 11 59.9972C11.2654 59.9972 11.5199 59.8918 11.7075 59.7042C11.8952 59.5165 12.0006 59.262 12.0006 58.9967C12.0006 58.7313 11.8952 58.4768 11.7075 58.2892C11.5199 58.1015 11.2654 57.9961 11 57.9961C10.7347 57.9961 10.4802 58.1015 10.2925 58.2892C10.1049 58.4768 9.99945 58.7313 9.99945 58.9967Z" stroke="black" stroke-width="2" stroke-linecap="round" stroke-linejoin="round"/>
<path d="M11 57.9961V51.9927" stroke="black" stroke-width="2" stroke-linecap="round" stroke-linejoin="round"/>
<path d="M14.0017 53.9939L12.0005 51.9927" stroke="black" stroke-width="2" stroke-linecap="round" stroke-linejoin="round"/>
<path d="M9.99943 49.9916L8.09833 48.0905" stroke="black" stroke-width="2" stroke-linecap="round" stroke-linejoin="round"/>
<path d="M12.4468 45.5891L20.4064 53.5476C20.7901 53.9313 21.0057 54.4518 21.0057 54.9944C21.0057 55.5371 20.7901 56.0575 20.4064 56.4412L12.4468 64.4007C12.0631 64.7844 11.5426 65 11 65C10.4573 65 9.93687 64.7844 9.55314 64.4007L1.59354 56.4412C1.20983 56.0575 0.994263 55.5371 0.994263 54.9944C0.994263 54.4518 1.20983 53.9313 1.59354 53.5476L9.55314 45.5881C9.93687 45.2044 10.4573 44.9888 11 44.9888C11.5426 44.9888 12.0631 45.2054 12.4468 45.5891Z" stroke="black" stroke-width="2" stroke-linecap="round" stroke-linejoin="round"/>
<path d="M11.463 23.0866C11.6083 23.0866 11.7525 23.0866 11.8957 23.0866C10.4813 24.4008 9.57221 26.1691 9.32637 28.0841C9.08052 29.9992 9.5135 31.9397 10.55 33.5686C11.5865 35.1975 13.1611 36.4116 15 37C16.8389 37.5885 18.8258 37.5138 20.6153 36.7893C19.927 38.4456 18.8018 39.8841 17.36 40.9512C15.9182 42.0182 14.2138 42.674 12.4284 42.8482C10.6432 43.0226 8.84411 42.7091 7.22307 41.9412C5.60204 41.1731 4.21987 39.9796 3.22403 38.4876C2.22818 36.9957 1.65598 35.2614 1.5685 33.4697C1.481 31.6781 1.88149 29.8964 2.72725 28.3146C3.573 26.7327 4.83229 25.4101 6.37078 24.4878C7.90929 23.5655 9.66927 23.0781 11.463 23.0778V23.0866Z" stroke="black" stroke-width="2.20194" stroke-linecap="round" stroke-linejoin="round"/>
<path d="M6.59998 11.1C6.5998 11.6779 6.71347 12.2503 6.93452 12.7842C7.15556 13.3183 7.47964 13.8035 7.88823 14.2121C8.29683 14.6209 8.78194 14.945 9.31585 15.1663C9.84977 15.3875 10.422 15.5013 11 15.5013C11.5779 15.5013 12.1501 15.3875 12.6841 15.1663C13.218 14.945 13.7031 14.6209 14.1118 14.2121C14.5203 13.8035 14.8444 13.3183 15.0655 12.7842C15.2865 12.2503 15.4002 11.6779 15.4 11.1C15.4002 10.5221 15.2865 9.94976 15.0655 9.41578C14.8444 8.88179 14.5203 8.39657 14.1118 7.98786C13.7031 7.57913 13.218 7.25492 12.6841 7.03371C12.1501 6.81251 11.5779 6.69865 11 6.69865C10.422 6.69865 9.84977 6.81251 9.31585 7.03371C8.78194 7.25492 8.29683 7.57913 7.88823 7.98786C7.47964 8.39657 7.15556 8.88179 6.93452 9.41578C6.71347 9.94976 6.5998 10.5221 6.59998 11.1Z" stroke="black" stroke-width="2.2" stroke-linecap="round" stroke-linejoin="round"/>
<path d="M1.09998 11.1H2.19998M11 1.2V2.3M19.8 11.1H20.9M11 19.9V21M3.95998 4.06L4.72998 4.83M18.04 4.06L17.27 4.83M17.27 17.37L18.04 18.14M4.72998 17.37L3.95998 18.14" stroke="black" stroke-width="2.2" stroke-linecap="round" stroke-linejoin="round"/>
</g>
<defs>
<clipPath id="clip0_37_9">
<rect width="22" height="66" fill="white"/>
</clipPath>
</defs>
</svg>
