<svg width="457" height="98" viewBox="0 0 457 98" fill="none" xmlns="http://www.w3.org/2000/svg">
<path d="M144.481 73.5122H137.764V43.792H119.316C117.7 43.792 116.182 44.1036 114.762 44.7268C113.364 45.3285 112.141 46.1558 111.092 47.2088C110.044 48.2403 109.213 49.4653 108.602 50.8836C108.012 52.2804 107.717 53.7739 107.717 55.3642C107.717 56.9544 108.012 58.4479 108.602 59.8448C109.213 61.2201 110.044 62.4343 111.092 63.4873C112.141 64.5188 113.364 65.3461 114.762 65.9693C116.182 66.571 117.7 66.8826 119.316 66.9041H134.422V73.5122H119.316C116.782 73.5122 114.401 73.0394 112.173 72.0939C109.945 71.1268 108.001 69.8267 106.341 68.1935C104.703 66.5388 103.403 64.6155 102.442 62.4235C101.481 60.2101 101 57.857 101 55.3642C101 52.8714 101.481 50.529 102.442 48.337C103.403 46.1451 104.703 44.2325 106.341 42.5993C108.001 40.9446 109.945 39.6445 112.173 38.6989C114.401 37.7319 116.782 37.2376 119.316 37.2161H137.764V24H144.481V73.5122Z" fill="#525252"/>
<path d="M198.742 55.3642C198.742 57.857 198.262 60.1993 197.3 62.3913C196.339 64.5832 195.029 66.5066 193.368 68.1613C191.73 69.7945 189.797 71.0946 187.569 72.0616C185.341 73.0072 182.96 73.4907 180.426 73.5122H170.104C167.57 73.4907 165.189 73.0072 162.961 72.0616C160.733 71.0946 158.789 69.7945 157.129 68.1613C155.49 66.5066 154.191 64.5832 153.23 62.3913C152.268 60.1993 151.788 57.857 151.788 55.3642C151.788 52.8714 152.268 50.529 153.23 48.337C154.191 46.1236 155.49 44.2003 157.129 42.5671C158.789 40.9124 160.733 39.6122 162.961 38.6667C165.189 37.6997 167.57 37.2161 170.104 37.2161H180.426C182.108 37.2161 183.735 37.431 185.308 37.8608C186.881 38.2906 188.344 38.9031 189.699 39.6982C191.053 40.4933 192.287 41.4496 193.401 42.5671C194.515 43.663 195.465 44.888 196.252 46.2418C197.038 47.5742 197.65 49.014 198.087 50.5612C198.524 52.1085 198.742 53.7095 198.742 55.3642ZM192.058 55.3642C192.058 53.7739 191.752 52.2804 191.14 50.8836C190.529 49.4867 189.699 48.2726 188.65 47.2411C187.602 46.1881 186.367 45.3607 184.947 44.759C183.549 44.1358 182.042 43.8135 180.426 43.792H170.104C168.488 43.8135 166.97 44.1358 165.55 44.759C164.152 45.3607 162.928 46.1881 161.88 47.2411C160.831 48.2726 160.001 49.4867 159.39 50.8836C158.8 52.2804 158.505 53.7739 158.505 55.3642C158.505 56.9544 158.8 58.4479 159.39 59.8448C160.001 61.2416 160.831 62.4665 161.88 63.5195C162.928 64.551 164.152 65.3784 165.55 66.0016C166.97 66.6033 168.488 66.9041 170.104 66.9041H180.426C182.042 66.9041 183.549 66.6033 184.947 66.0016C186.367 65.3784 187.602 64.551 188.65 63.5195C189.699 62.4665 190.529 61.2416 191.14 59.8448C191.752 58.4479 192.058 56.9544 192.058 55.3642Z" fill="#525252"/>
<path d="M244.025 73.5122H222.072C219.538 73.4907 217.157 73.0072 214.929 72.0616C212.701 71.0946 210.756 69.7945 209.096 68.1613C207.458 66.5066 206.158 64.5832 205.197 62.3913C204.236 60.1993 203.755 57.857 203.755 55.3642C203.755 52.8714 204.236 50.529 205.197 48.337C206.158 46.1236 207.458 44.2003 209.096 42.5671C210.756 40.9124 212.701 39.6122 214.929 38.6667C217.157 37.6997 219.538 37.2161 222.072 37.2161H244.025V43.792H222.072C220.455 43.8135 218.937 44.1358 217.517 44.759C216.119 45.3607 214.896 46.1881 213.847 47.2411C212.799 48.2726 211.969 49.4867 211.357 50.8836C210.767 52.2804 210.472 53.7739 210.472 55.3642C210.472 56.9544 210.767 58.4479 211.357 59.8448C211.969 61.2416 212.799 62.4665 213.847 63.5195C214.896 64.551 216.119 65.3784 217.517 66.0016C218.937 66.6033 220.455 66.9041 222.072 66.9041H244.025V73.5122Z" fill="#525252"/>
<path d="M295.075 73.5122H285.475L265.88 58.0074L258.082 64.2609V73.5122H251.365V24H258.082V57.266L282.526 37.2161H291.635L270.763 54.0426L295.075 73.5122Z" fill="#525252"/>
<path d="M355.202 60.296C355.202 62.1442 354.841 63.8741 354.12 65.4858C353.421 67.076 352.46 68.4729 351.237 69.6763C350.035 70.8582 348.615 71.793 346.977 72.4807C345.339 73.1684 343.602 73.5122 341.767 73.5122H309.951V66.9041H341.767C342.685 66.9041 343.548 66.7322 344.356 66.3884C345.186 66.0445 345.907 65.5718 346.518 64.97C347.13 64.3683 347.611 63.6699 347.96 62.8748C348.31 62.0582 348.484 61.1986 348.484 60.296C348.484 59.3935 348.31 58.5446 347.96 57.7495C347.611 56.9544 347.13 56.256 346.518 55.6543C345.907 55.0526 345.186 54.5798 344.356 54.236C343.548 53.8921 342.685 53.7202 341.767 53.7202H309.951V47.1121H335.05C335.968 47.1121 336.831 46.9402 337.639 46.5964C338.469 46.2526 339.19 45.7798 339.801 45.1781C340.413 44.5764 340.894 43.8779 341.243 43.0828C341.593 42.2662 341.767 41.4066 341.767 40.5041C341.767 39.6015 341.593 38.7527 341.243 37.9575C340.894 37.1409 340.413 36.4318 339.801 35.8301C339.19 35.2284 338.469 34.7556 337.639 34.4117C336.831 34.0679 335.968 33.896 335.05 33.896H306.609V73.5122H299.892V27.2879H335.05C336.885 27.2879 338.622 27.6425 340.26 28.3517C341.898 29.0393 343.318 29.9849 344.52 31.1883C345.743 32.3702 346.704 33.7671 347.403 35.3788C348.124 36.9905 348.484 38.6989 348.484 40.5041C348.484 41.9009 348.277 43.2225 347.862 44.4689C347.447 45.6938 346.89 46.8328 346.191 47.8858C347.501 48.337 348.703 48.971 349.795 49.7876C350.909 50.6042 351.859 51.5498 352.646 52.6242C353.454 53.6987 354.077 54.8914 354.513 56.2023C354.972 57.4916 355.202 58.8562 355.202 60.296Z" fill="#525252"/>
<path d="M406.874 55.3642C406.874 57.857 406.394 60.1993 405.432 62.3913C404.471 64.5832 403.161 66.5066 401.5 68.1613C399.862 69.7945 397.929 71.0946 395.701 72.0616C393.473 73.0072 391.092 73.4907 388.558 73.5122H378.236C375.702 73.4907 373.321 73.0072 371.093 72.0616C368.865 71.0946 366.921 69.7945 365.261 68.1613C363.622 66.5066 362.323 64.5832 361.362 62.3913C360.4 60.1993 359.92 57.857 359.92 55.3642C359.92 52.8714 360.4 50.529 361.362 48.337C362.323 46.1236 363.622 44.2003 365.261 42.5671C366.921 40.9124 368.865 39.6122 371.093 38.6667C373.321 37.6997 375.702 37.2161 378.236 37.2161H388.558C390.24 37.2161 391.867 37.431 393.44 37.8608C395.013 38.2906 396.476 38.9031 397.831 39.6982C399.185 40.4933 400.419 41.4496 401.533 42.5671C402.647 43.663 403.597 44.888 404.384 46.2418C405.17 47.5742 405.782 49.014 406.219 50.5612C406.656 52.1085 406.874 53.7095 406.874 55.3642ZM400.19 55.3642C400.19 53.7739 399.884 52.2804 399.272 50.8836C398.661 49.4867 397.831 48.2726 396.782 47.2411C395.734 46.1881 394.499 45.3607 393.079 44.759C391.681 44.1358 390.174 43.8135 388.558 43.792H378.236C376.62 43.8135 375.102 44.1358 373.682 44.759C372.284 45.3607 371.06 46.1881 370.012 47.2411C368.963 48.2726 368.133 49.4867 367.522 50.8836C366.932 52.2804 366.637 53.7739 366.637 55.3642C366.637 56.9544 366.932 58.4479 367.522 59.8448C368.133 61.2416 368.963 62.4665 370.012 63.5195C371.06 64.551 372.284 65.3784 373.682 66.0016C375.102 66.6033 376.62 66.9041 378.236 66.9041H388.558C390.174 66.9041 391.681 66.6033 393.079 66.0016C394.499 65.3784 395.734 64.551 396.782 63.5195C397.831 62.4665 398.661 61.2416 399.272 59.8448C399.884 58.4479 400.19 56.9544 400.19 55.3642Z" fill="#525252"/>
<path d="M456.122 73.5122H446.554L432.17 59.8448L418.08 73.5122H408.48L427.55 55.4286L408.48 37.2161H418.08L456.122 73.5122ZM456.122 37.2161L440.165 52.5275L435.348 48.3048L446.554 37.2161H456.122Z" fill="#525252"/>
<path d="M42.3899 0L0 24.4739L42.3919 49.051L76.3028 29.4733V68.6304L42.3899 88.2098L8.47906 68.6314V54.0558L42.3683 73.4343L63.5853 61.2892V51.498L42.3899 63.7363L0.000293932 39.2622V73.5255L42.3899 98L84.7818 73.5255V24.5775L76.3038 19.683L42.3919 39.2622L17.0463 24.6294L42.4801 9.94455L55.1083 17.2358L63.5853 12.34L42.3899 0Z" fill="url(#paint0_linear_65_29)"/>
<path d="M42.3899 0V9.99639L42.4801 9.94455L55.1083 17.2358L63.5863 12.34L42.3899 0ZM76.3038 19.6829L42.3919 39.2622V49.05L76.3048 29.4732V68.6304L42.3919 88.2098V98L84.7837 73.5245V24.5774L76.3038 19.6829ZM63.5863 51.498L42.3899 63.7363V73.4216L63.5863 61.2892V51.498Z" fill="url(#paint1_linear_65_29)"/>
<defs>
<linearGradient id="paint0_linear_65_29" x1="63.5853" y1="85.6589" x2="21.1954" y2="12.237" gradientUnits="userSpaceOnUse">
<stop stop-color="#8734FD" stop-opacity="0.972549"/>
<stop offset="0.501423" stop-color="#FF459E" stop-opacity="0.972549"/>
<stop offset="1" stop-color="#FFC405" stop-opacity="0.972549"/>
</linearGradient>
<linearGradient id="paint1_linear_65_29" x1="42.3909" y1="98" x2="84.7817" y2="98" gradientUnits="userSpaceOnUse">
<stop stop-color="white" stop-opacity="0.251"/>
<stop offset="1" stop-color="white" stop-opacity="0"/>
</linearGradient>
</defs>
</svg>
