<svg width="200" height="100" viewBox="0 0 200 100" fill="none" xmlns="http://www.w3.org/2000/svg">
<path d="M63 2L46 20L46 81H20L20 55H43V38H2.99998V98H63V2Z" fill="#547E8C"/>
<path d="M23 58L43 58V78H23V58Z" fill="#D56C4C"/>
<path d="M67 38L67 76H69L69 38H67ZM75 38L75 76H83L83 38H75ZM85 38L85 76H87L87 38H85ZM89 38L89 76H91L91 38H89ZM99 38L99 76H101L101 38H99ZM103 38L103 76H107L107 38H103ZM111 38L111 76H115L115 38H111ZM123 38L123 76H125L125 38H123ZM129 38L129 76H131L131 38H129ZM133 38L133 76H135V38H133ZM140.988 38V76H142.988L142.988 38H140.988ZM145 38L145 76H149V38H145ZM155 38L155 76H157L157 38H155ZM163 38V76H171L171 38H163ZM172.988 38L172.988 76H174.988L174.988 38H172.988ZM177 38V76H185L185 38H177ZM189 38V76H191V38H189ZM195 38V76H197V38H195Z" fill="#F0F1F3"/>
<path d="M79.2243 78C79.5557 78 79.7897 78.08 79.9261 78.2399C80.0724 78.3898 80.1455 78.6497 80.1455 79.0195V95.6312H81.3445C81.6759 95.6312 81.9099 95.7111 82.0464 95.8711C82.1926 96.021 82.2657 96.2809 82.2657 96.6507C82.2657 97.0205 82.1926 97.2854 82.0464 97.4453C81.9099 97.5952 81.6759 97.6702 81.3445 97.6702H79.0195C78.6881 97.6702 78.4493 97.5952 78.3031 97.4453C78.1666 97.2854 78.0983 97.0205 78.0983 96.6507V95.4513C77.4842 96.2709 76.7726 96.9006 75.9635 97.3403C75.1544 97.7801 74.2722 98 73.3168 98C72.1081 98 71.026 97.7101 70.0707 97.1304C69.1154 96.5407 68.3647 95.7011 67.8188 94.6117C67.2729 93.5122 67 92.2229 67 90.7436C67 89.2644 67.2729 87.98 67.8188 86.8906C68.3647 85.7911 69.1154 84.9515 70.0707 84.3718C71.026 83.7821 72.1081 83.4873 73.3168 83.4873C75.1495 83.4873 76.6946 84.3118 77.9521 85.961V80.039H75.5833C75.2519 80.039 75.013 79.964 74.8668 79.8141C74.7303 79.6542 74.6621 79.3893 74.6621 79.0195C74.6621 78.6497 74.7303 78.3898 74.8668 78.2399C75.013 78.08 75.2519 78 75.5833 78H79.2243ZM73.4631 85.7061C72.5955 85.7061 71.8497 85.921 71.2258 86.3508C70.602 86.7706 70.1243 87.3603 69.7929 88.1199C69.4712 88.8796 69.3103 89.7541 69.3103 90.7436C69.3103 91.7331 69.4712 92.6077 69.7929 93.3673C70.1243 94.1269 70.602 94.7216 71.2258 95.1514C71.8497 95.5712 72.5955 95.7811 73.4631 95.7811C74.3307 95.7811 75.1008 95.5812 75.7734 95.1814C76.4558 94.7816 76.987 94.2019 77.3672 93.4423C77.7572 92.6827 77.9521 91.7831 77.9521 90.7436C77.9521 89.7041 77.7572 88.8046 77.3672 88.045C76.987 87.2854 76.4558 86.7056 75.7734 86.3058C75.1008 85.906 74.3307 85.7061 73.4631 85.7061Z" fill="#F0F1F3"/>
<path d="M93.2751 83.4873C94.6106 83.4873 95.8145 83.7971 96.8868 84.4168C97.9592 85.0365 98.7975 85.901 99.4019 87.0105C100.016 88.1099 100.323 89.3543 100.323 90.7436C100.323 92.1329 100.016 93.3823 99.4019 94.4918C98.7975 95.5912 97.9592 96.4508 96.8868 97.0705C95.8145 97.6902 94.6106 98 93.2751 98C91.9396 98 90.7357 97.6902 89.6634 97.0705C88.5911 96.4508 87.7479 95.5912 87.1338 94.4918C86.5294 93.3823 86.2272 92.1329 86.2272 90.7436C86.2272 89.3543 86.5294 88.1099 87.1338 87.0105C87.7479 85.901 88.5911 85.0365 89.6634 84.4168C90.7357 83.7971 91.9396 83.4873 93.2751 83.4873ZM93.2751 85.7061C92.3296 85.7061 91.4961 85.921 90.7747 86.3508C90.0631 86.7706 89.5123 87.3653 89.1224 88.1349C88.7325 88.8946 88.5375 89.7641 88.5375 90.7436C88.5375 91.7231 88.7325 92.5977 89.1224 93.3673C89.5123 94.1269 90.0631 94.7216 90.7747 95.1514C91.4961 95.5712 92.3296 95.7811 93.2751 95.7811C94.2207 95.7811 95.0493 95.5712 95.7609 95.1514C96.4823 94.7216 97.0379 94.1269 97.4279 93.3673C97.8178 92.5977 98.0128 91.7231 98.0128 90.7436C98.0128 89.7641 97.8178 88.8946 97.4279 88.1349C97.0379 87.3653 96.4823 86.7706 95.7609 86.3508C95.0493 85.921 94.2207 85.7061 93.2751 85.7061Z" fill="#F0F1F3"/>
<path d="M117.693 83.4873C118.093 83.4873 118.376 83.5622 118.541 83.7121C118.707 83.8621 118.79 84.1119 118.79 84.4618V88.8096C118.79 89.1594 118.707 89.4093 118.541 89.5592C118.376 89.7091 118.093 89.7841 117.693 89.7841C117.294 89.7841 117.011 89.7091 116.845 89.5592C116.679 89.4093 116.597 89.1594 116.597 88.8096C116.597 88.1999 116.441 87.6602 116.129 87.1904C115.817 86.7206 115.349 86.3558 114.725 86.096C114.111 85.8361 113.37 85.7061 112.502 85.7061C111.566 85.7061 110.728 85.921 109.987 86.3508C109.246 86.7806 108.666 87.3803 108.247 88.1499C107.828 88.9195 107.618 89.7841 107.618 90.7436C107.618 91.7131 107.813 92.5827 108.203 93.3523C108.603 94.1119 109.159 94.7066 109.87 95.1364C110.592 95.5662 111.42 95.7811 112.356 95.7811C113.253 95.7811 114.121 95.6412 114.959 95.3613C115.807 95.0715 116.577 94.6567 117.269 94.1169C117.474 93.957 117.664 93.8771 117.839 93.8771C118.122 93.8771 118.385 94.082 118.629 94.4918C118.775 94.7416 118.848 94.9815 118.848 95.2114C118.848 95.5612 118.692 95.8511 118.38 96.081C117.601 96.6807 116.679 97.1504 115.617 97.4903C114.554 97.8301 113.467 98 112.356 98C110.962 98 109.729 97.6852 108.657 97.0555C107.594 96.4258 106.77 95.5612 106.185 94.4618C105.601 93.3623 105.308 92.1229 105.308 90.7436C105.308 89.3643 105.605 88.1249 106.2 87.0255C106.795 85.926 107.623 85.0615 108.686 84.4318C109.758 83.8021 110.982 83.4873 112.356 83.4873C113.224 83.4873 114.018 83.6522 114.74 83.982C115.471 84.3018 116.09 84.7616 116.597 85.3613V84.4618C116.597 84.1119 116.679 83.8621 116.845 83.7121C117.011 83.5622 117.294 83.4873 117.693 83.4873Z" fill="#F0F1F3"/>
<path d="M138.631 95.6312C138.963 95.6312 139.197 95.7111 139.333 95.8711C139.479 96.021 139.552 96.2809 139.552 96.6507C139.552 97.0205 139.479 97.2854 139.333 97.4453C139.197 97.5952 138.963 97.6702 138.631 97.6702H133.894C133.562 97.6702 133.323 97.5952 133.177 97.4453C133.041 97.2854 132.972 97.0205 132.972 96.6507C132.972 96.2809 133.041 96.021 133.177 95.8711C133.323 95.7111 133.562 95.6312 133.894 95.6312H134.946L131.276 91.1634L128.615 93.5622V95.6312H129.682C130.014 95.6312 130.248 95.7111 130.384 95.8711C130.53 96.021 130.604 96.2809 130.604 96.6507C130.604 97.0205 130.53 97.2854 130.384 97.4453C130.248 97.5952 130.014 97.6702 129.682 97.6702H124.799C124.467 97.6702 124.228 97.5952 124.082 97.4453C123.946 97.2854 123.877 97.0205 123.877 96.6507C123.877 96.2809 123.946 96.021 124.082 95.8711C124.228 95.7111 124.467 95.6312 124.799 95.6312H126.422V80.039H124.506C124.175 80.039 123.936 79.964 123.79 79.8141C123.653 79.6542 123.585 79.3893 123.585 79.0195C123.585 78.6497 123.653 78.3898 123.79 78.2399C123.936 78.08 124.175 78 124.506 78H127.694C128.025 78 128.259 78.08 128.396 78.2399C128.542 78.3898 128.615 78.6497 128.615 79.0195V90.8936L134.186 85.8561H133.148C132.816 85.8561 132.578 85.7811 132.431 85.6312C132.295 85.4713 132.227 85.2064 132.227 84.8366C132.227 84.4668 132.295 84.2069 132.431 84.057C132.578 83.8971 132.816 83.8171 133.148 83.8171H138.032C138.363 83.8171 138.597 83.8971 138.734 84.057C138.88 84.2069 138.953 84.4668 138.953 84.8366C138.953 85.2064 138.88 85.4713 138.734 85.6312C138.597 85.7811 138.363 85.8561 138.032 85.8561H137.169L132.87 89.7391L137.783 95.6312H138.631Z" fill="#F0F1F3"/>
<path d="M151.176 79.8741C152.317 79.8741 153.286 80.074 154.086 80.4738C154.885 80.8736 155.485 81.4383 155.884 82.1679C156.294 82.8876 156.499 83.7321 156.499 84.7016C156.499 85.4613 156.328 86.1359 155.987 86.7256C155.655 87.3053 155.178 87.7801 154.554 88.1499C155.587 88.4898 156.377 89.0395 156.923 89.7991C157.478 90.5487 157.756 91.4783 157.756 92.5877C157.756 93.6372 157.537 94.5417 157.098 95.3013C156.659 96.061 156.021 96.6457 155.183 97.0555C154.344 97.4653 153.33 97.6702 152.141 97.6702H143.85C143.519 97.6702 143.28 97.5952 143.134 97.4453C142.997 97.2854 142.929 97.0205 142.929 96.6507C142.929 96.2809 142.997 96.021 143.134 95.8711C143.28 95.7111 143.519 95.6312 143.85 95.6312H145.634V81.913H143.85C143.519 81.913 143.28 81.8381 143.134 81.6882C142.997 81.5282 142.929 81.2634 142.929 80.8936C142.929 80.5237 142.997 80.2639 143.134 80.1139C143.28 79.954 143.519 79.8741 143.85 79.8741H151.176ZM147.827 87.4603H150.854C151.975 87.4603 152.823 87.2204 153.399 86.7406C153.974 86.2609 154.261 85.5812 154.261 84.7016C154.261 83.7821 153.979 83.0875 153.413 82.6177C152.848 82.1479 151.995 81.913 150.854 81.913H147.827V87.4603ZM147.827 95.6312H151.702C152.901 95.6312 153.823 95.3663 154.466 94.8366C155.119 94.3068 155.446 93.5572 155.446 92.5877C155.446 90.5287 154.222 89.4993 151.776 89.4993H147.827V95.6312Z" fill="#F0F1F3"/>
<path d="M169.891 83.4873C171.227 83.4873 172.431 83.7971 173.503 84.4168C174.575 85.0365 175.414 85.901 176.018 87.0105C176.632 88.1099 176.939 89.3543 176.939 90.7436C176.939 92.1329 176.632 93.3823 176.018 94.4918C175.414 95.5912 174.575 96.4508 173.503 97.0705C172.431 97.6902 171.227 98 169.891 98C168.556 98 167.352 97.6902 166.28 97.0705C165.207 96.4508 164.364 95.5912 163.75 94.4918C163.146 93.3823 162.843 92.1329 162.843 90.7436C162.843 89.3543 163.146 88.1099 163.75 87.0105C164.364 85.901 165.207 85.0365 166.28 84.4168C167.352 83.7971 168.556 83.4873 169.891 83.4873ZM169.891 85.7061C168.946 85.7061 168.112 85.921 167.391 86.3508C166.679 86.7706 166.129 87.3653 165.739 88.1349C165.349 88.8946 165.154 89.7641 165.154 90.7436C165.154 91.7231 165.349 92.5977 165.739 93.3673C166.129 94.1269 166.679 94.7216 167.391 95.1514C168.112 95.5712 168.946 95.7811 169.891 95.7811C170.837 95.7811 171.666 95.5712 172.377 95.1514C173.099 94.7216 173.654 94.1269 174.044 93.3673C174.434 92.5977 174.629 91.7231 174.629 90.7436C174.629 89.7641 174.434 88.8946 174.044 88.1349C173.654 87.3653 173.099 86.7706 172.377 86.3508C171.666 85.921 170.837 85.7061 169.891 85.7061Z" fill="#F0F1F3"/>
<path d="M195.933 83.8171C196.264 83.8171 196.498 83.8971 196.634 84.057C196.781 84.2069 196.854 84.4668 196.854 84.8366C196.854 85.2064 196.781 85.4713 196.634 85.6312C196.498 85.7811 196.264 85.8561 195.933 85.8561H194.982L190.639 90.5487L195.333 95.6312H196.079C196.41 95.6312 196.644 95.7111 196.781 95.8711C196.927 96.021 197 96.2809 197 96.6507C197 97.0205 196.927 97.2854 196.781 97.4453C196.644 97.5952 196.41 97.6702 196.079 97.6702H191.049C190.717 97.6702 190.478 97.5952 190.332 97.4453C190.196 97.2854 190.128 97.0205 190.128 96.6507C190.128 96.2809 190.196 96.021 190.332 95.8711C190.478 95.7111 190.717 95.6312 191.049 95.6312H192.452L188.943 91.7631L185.448 95.6312H186.604C186.935 95.6312 187.169 95.7111 187.305 95.8711C187.452 96.021 187.525 96.2809 187.525 96.6507C187.525 97.0205 187.452 97.2854 187.305 97.4453C187.169 97.5952 186.935 97.6702 186.604 97.6702H182.012C181.681 97.6702 181.442 97.5952 181.296 97.4453C181.159 97.2854 181.091 97.0205 181.091 96.6507C181.091 96.2809 181.159 96.021 181.296 95.8711C181.442 95.7111 181.681 95.6312 182.012 95.6312H182.743L187.495 90.5187L183.197 85.8561H182.158C181.827 85.8561 181.588 85.7811 181.442 85.6312C181.305 85.4713 181.237 85.2064 181.237 84.8366C181.237 84.4668 181.305 84.2069 181.442 84.057C181.588 83.8971 181.827 83.8171 182.158 83.8171H187.188C187.52 83.8171 187.754 83.8971 187.89 84.057C188.037 84.2069 188.11 84.4668 188.11 84.8366C188.11 85.2064 188.037 85.4713 187.89 85.6312C187.754 85.7811 187.52 85.8561 187.188 85.8561H186.077L189.177 89.3043L192.292 85.8561H191.487C191.156 85.8561 190.917 85.7811 190.771 85.6312C190.634 85.4713 190.566 85.2064 190.566 84.8366C190.566 84.4668 190.634 84.2069 190.771 84.057C190.917 83.8971 191.156 83.8171 191.487 83.8171H195.933Z" fill="#F0F1F3"/>
<path d="M161.533 29.5859C161.666 29.5859 161.76 29.6172 161.814 29.6797C161.873 29.7383 161.902 29.8398 161.902 29.9844C161.902 30.1289 161.873 30.2324 161.814 30.2949C161.76 30.3535 161.666 30.3828 161.533 30.3828H161.164L159.271 34.748C159.217 34.8809 159.135 34.9766 159.025 35.0352C158.92 35.0977 158.771 35.1289 158.58 35.1289C158.393 35.1289 158.246 35.0977 158.141 35.0352C158.039 34.9766 157.959 34.8809 157.9 34.748L156.025 30.3828H155.662C155.529 30.3828 155.434 30.3535 155.375 30.2949C155.32 30.2324 155.293 30.1289 155.293 29.9844C155.293 29.8398 155.32 29.7383 155.375 29.6797C155.434 29.6172 155.529 29.5859 155.662 29.5859H157.736C157.869 29.5859 157.963 29.6172 158.018 29.6797C158.076 29.7383 158.105 29.8398 158.105 29.9844C158.105 30.1289 158.076 30.2324 158.018 30.2949C157.963 30.3535 157.869 30.3828 157.736 30.3828H156.986L158.586 34.2031L160.203 30.3828H159.693C159.561 30.3828 159.465 30.3535 159.406 30.2949C159.352 30.2324 159.324 30.1289 159.324 29.9844C159.324 29.8398 159.352 29.7383 159.406 29.6797C159.465 29.6172 159.561 29.5859 159.693 29.5859H161.533ZM167.902 34.2031C168.035 34.2031 168.129 34.2344 168.184 34.2969C168.242 34.3555 168.271 34.457 168.271 34.6016C168.271 34.7461 168.242 34.8496 168.184 34.9121C168.129 34.9707 168.035 35 167.902 35H163.953C163.82 35 163.725 34.9707 163.666 34.9121C163.611 34.8496 163.584 34.7461 163.584 34.6016C163.584 34.457 163.611 34.3555 163.666 34.2969C163.725 34.2344 163.82 34.2031 163.953 34.2031H165.529V29.1758L164.07 30.084C164.004 30.123 163.943 30.1426 163.889 30.1426C163.764 30.1426 163.656 30.0625 163.566 29.9023C163.512 29.8086 163.484 29.7188 163.484 29.6328C163.484 29.5 163.545 29.3984 163.666 29.3281L165.875 27.9688C165.953 27.9219 166.031 27.8984 166.109 27.8984C166.195 27.8984 166.266 27.9277 166.32 27.9863C166.379 28.041 166.408 28.1191 166.408 28.2207V34.2031H167.902ZM172.988 33.2422C173.27 33.2422 173.471 33.2715 173.592 33.3301C173.717 33.3848 173.779 33.4785 173.779 33.6113V34.6895C173.779 34.8223 173.717 34.918 173.592 34.9766C173.471 35.0312 173.27 35.0586 172.988 35.0586C172.707 35.0586 172.504 35.0312 172.379 34.9766C172.258 34.918 172.197 34.8223 172.197 34.6895V33.6113C172.197 33.4785 172.258 33.3848 172.379 33.3301C172.504 33.2715 172.707 33.2422 172.988 33.2422ZM180.184 27.916C180.684 27.916 181.121 28.0664 181.496 28.3672C181.875 28.6641 182.166 29.0859 182.369 29.6328C182.576 30.1758 182.68 30.8066 182.68 31.5254C182.68 32.2441 182.576 32.875 182.369 33.418C182.166 33.9609 181.877 34.3828 181.502 34.6836C181.127 34.9805 180.688 35.1289 180.184 35.1289C179.68 35.1289 179.24 34.9805 178.865 34.6836C178.49 34.3828 178.199 33.9609 177.992 33.418C177.789 32.875 177.688 32.2441 177.688 31.5254C177.688 30.8066 177.789 30.1758 177.992 29.6328C178.199 29.0859 178.49 28.6641 178.865 28.3672C179.244 28.0664 179.684 27.916 180.184 27.916ZM180.184 28.7832C179.875 28.7832 179.602 28.8926 179.363 29.1113C179.129 29.3262 178.945 29.6406 178.812 30.0547C178.68 30.4648 178.613 30.9551 178.613 31.5254C178.613 32.0957 178.68 32.5879 178.812 33.002C178.945 33.4121 179.129 33.7246 179.363 33.9395C179.602 34.1543 179.875 34.2617 180.184 34.2617C180.492 34.2617 180.764 34.1543 180.998 33.9395C181.236 33.7246 181.422 33.4121 181.555 33.002C181.688 32.5879 181.754 32.0957 181.754 31.5254C181.754 30.9551 181.688 30.4648 181.555 30.0547C181.422 29.6406 181.236 29.3262 180.998 29.1113C180.764 28.8926 180.492 28.7832 180.184 28.7832ZM187.379 33.2422C187.66 33.2422 187.861 33.2715 187.982 33.3301C188.107 33.3848 188.17 33.4785 188.17 33.6113V34.6895C188.17 34.8223 188.107 34.918 187.982 34.9766C187.861 35.0312 187.66 35.0586 187.379 35.0586C187.098 35.0586 186.895 35.0312 186.77 34.9766C186.648 34.918 186.588 34.8223 186.588 34.6895V33.6113C186.588 33.4785 186.648 33.3848 186.77 33.3301C186.895 33.2715 187.098 33.2422 187.379 33.2422ZM194.574 27.916C195.074 27.916 195.512 28.0664 195.887 28.3672C196.266 28.6641 196.557 29.0859 196.76 29.6328C196.967 30.1758 197.07 30.8066 197.07 31.5254C197.07 32.2441 196.967 32.875 196.76 33.418C196.557 33.9609 196.268 34.3828 195.893 34.6836C195.518 34.9805 195.078 35.1289 194.574 35.1289C194.07 35.1289 193.631 34.9805 193.256 34.6836C192.881 34.3828 192.59 33.9609 192.383 33.418C192.18 32.875 192.078 32.2441 192.078 31.5254C192.078 30.8066 192.18 30.1758 192.383 29.6328C192.59 29.0859 192.881 28.6641 193.256 28.3672C193.635 28.0664 194.074 27.916 194.574 27.916ZM194.574 28.7832C194.266 28.7832 193.992 28.8926 193.754 29.1113C193.52 29.3262 193.336 29.6406 193.203 30.0547C193.07 30.4648 193.004 30.9551 193.004 31.5254C193.004 32.0957 193.07 32.5879 193.203 33.002C193.336 33.4121 193.52 33.7246 193.754 33.9395C193.992 34.1543 194.266 34.2617 194.574 34.2617C194.883 34.2617 195.154 34.1543 195.389 33.9395C195.627 33.7246 195.812 33.4121 195.945 33.002C196.078 32.5879 196.145 32.0957 196.145 31.5254C196.145 30.9551 196.078 30.4648 195.945 30.0547C195.812 29.6406 195.627 29.3262 195.389 29.1113C195.154 28.8926 194.883 28.7832 194.574 28.7832Z" fill="#F0F1F3"/>
</svg>
